name C:\Users\u0101727\Documents\MyRepositories\upper-imu-dc\Results\main_tracking\Case_46\kinematics_filtered.mot
datacolumns 10
datarows 18
range 2.12000000 2.29000000
endheader 
time	clav_prot	clav_elev	scapula_abduction	scapula_elevation	scapula_upward_rot	scapula_winging	plane_elv	shoulder_elv	axial_rot	
          2.12000000	        -23.26322090	          0.75195756	          7.16959107	         -6.25321236	         44.29666358	         -2.99605935	         59.27643145	         58.86132982	        -19.04256494	
          2.13000000	        -23.26027562	          0.84035436	          7.32261186	         -6.21210166	         44.50732323	         -3.05587825	         59.25923175	         59.24970215	        -18.80527274	
          2.14000000	        -23.25881873	          0.93064750	          7.47262729	         -6.16949560	         44.71779103	         -3.11588236	         59.23987758	         59.64014320	        -18.56992975	
          2.15000000	        -23.25852637	          1.02314496	          7.62048171	         -6.12520475	         44.92850581	         -3.17622719	         59.21827901	         60.03203613	        -18.33671338	
          2.16000000	        -23.25907955	          1.11816149	          7.76691524	         -6.07902100	         45.13978650	         -3.23704896	         59.19441585	         60.42480687	        -18.10595312	
          2.17000000	        -23.26020626	          1.21599898	          7.91250895	         -6.03073648	         45.35185110	         -3.29846067	         59.16833034	         60.81792425	        -17.87810259	
          2.18000000	        -23.26172203	          1.31692469	          8.05764093	         -5.98016466	         45.56484517	         -3.36054896	         59.14011587	         61.21089534	        -17.65368907	
          2.19000000	        -23.26356450	          1.42114925	          8.20245843	         -5.92716177	         45.77887715	         -3.42337193	         59.10990234	         61.60325714	        -17.43324936	
          2.20000000	        -23.26581747	          1.52880629	          8.34687115	         -5.87164648	         45.99405694	         -3.48695830	         59.07783866	         61.99456634	        -17.21726240	
          2.21000000	        -23.26871983	          1.63993542	          8.49056913	         -5.81361602	         46.21053319	         -3.55130770	         59.04407365	         62.38438917	        -17.00608894	
          2.22000000	        -23.27265668	          1.75447012	          8.63306591	         -5.75315684	         46.42852386	         -3.61639195	         59.00873614	         62.77229361	        -16.79992626	
          2.23000000	        -23.27813265	          1.87223162	          8.77376306	         -5.69044881	         46.64833596	         -3.68215721	         58.97191587	         63.15784551	        -16.59878364	
          2.24000000	        -23.28573087	          1.99292901	          8.91202712	         -5.62576280	         46.87037110	         -3.74852632	         58.93364672	         63.54061002	        -16.40248014	
          2.25000000	        -23.29606462	          2.11616540	          9.04726663	         -5.55945205	         47.09511664	         -3.81540136	         58.89389353	         63.92015811	        -16.21066348	
          2.26000000	        -23.30973021	          2.24144912	          9.17899563	         -5.49193898	         47.32312420	         -3.88266614	         58.85254405	         64.29607740	        -16.02284581	
          2.27000000	        -23.32726951	          2.36820877	          9.30687260	         -5.42369924	         47.55498010	         -3.95018868	         58.80940667	         64.66798544	        -15.83845104	
          2.28000000	        -23.34914797	          2.49581057	          9.43070920	         -5.35524488	         47.79127295	         -4.01782378	         58.76421424	         65.03554331	        -15.65686806	
          2.29000000	        -23.37575015	          2.62357654	          9.55044980	         -5.28710834	         48.03256393	         -4.08541597	         58.71663348	         65.39846738	        -15.47750481	
